<svg width="50" height="50" viewBox="0 0 50 50" fill="none" xmlns="http://www.w3.org/2000/svg">
<g id="bell">
<path id="Vector" d="M37.5 16.6667C37.5 13.3515 36.183 10.1721 33.8388 7.82785C31.4946 5.48365 28.3152 4.16669 25 4.16669C21.6848 4.16669 18.5054 5.48365 16.1612 7.82785C13.817 10.1721 12.5 13.3515 12.5 16.6667C12.5 31.25 6.25 35.4167 6.25 35.4167H43.75C43.75 35.4167 37.5 31.25 37.5 16.6667Z" stroke="black" stroke-width="2" stroke-linecap="round" stroke-linejoin="round"/>
<path id="Vector_2" d="M28.6041 43.75C28.2378 44.3814 27.7121 44.9055 27.0796 45.2699C26.447 45.6342 25.7299 45.826 24.9999 45.826C24.27 45.826 23.5528 45.6342 22.9203 45.2699C22.2877 44.9055 21.762 44.3814 21.3958 43.75" stroke="black" stroke-width="2" stroke-linecap="round" stroke-linejoin="round"/>
</g>
</svg>
