<svg width="15" height="16" viewBox="0 0 15 16" fill="none" xmlns="http://www.w3.org/2000/svg">
    <path
        d="M10.625 2.02197H4.375C2.64911 2.02197 1.25 3.41113 1.25 5.12475V11.3303C1.25 13.0439 2.64911 14.4331 4.375 14.4331H10.625C12.3509 14.4331 13.75 13.0439 13.75 11.3303V5.12475C13.75 3.41113 12.3509 2.02197 10.625 2.02197Z"
        stroke="#C82424" stroke-width="0.8" stroke-linecap="round" stroke-linejoin="round" />
    <path
        d="M10.0001 7.83663C10.0772 8.35308 9.98835 8.88053 9.74616 9.34396C9.50397 9.80739 9.12078 10.1832 8.65108 10.4179C8.18138 10.6527 7.64909 10.7344 7.12993 10.6514C6.61076 10.5685 6.13116 10.3251 5.75934 9.95592C5.38751 9.58674 5.14239 9.11055 5.05885 8.59508C4.97531 8.07961 5.0576 7.55111 5.29402 7.08475C5.53043 6.61839 5.90893 6.23792 6.37568 5.99745C6.84243 5.75699 7.37366 5.66877 7.89381 5.74536C8.42439 5.82348 8.91559 6.06895 9.29487 6.44553C9.67415 6.82211 9.92138 7.30982 10.0001 7.83663Z"
        stroke="#C82424" stroke-width="0.8" stroke-linecap="round" stroke-linejoin="round" />
    <path d="M10.9375 4.81445H10.9438" stroke="#C82424" stroke-width="0.8" stroke-linecap="round"
        stroke-linejoin="round" />
</svg>
    