<svg width="10" height="10" viewBox="0 0 10 10" fill="none" xmlns="http://www.w3.org/2000/svg">
<g id="instagram" clip-path="url(#clip0_1326_35)">
<path id="Vector" d="M7.08325 0.833374H2.91659C1.76599 0.833374 0.833252 1.76611 0.833252 2.91671V7.08337C0.833252 8.23397 1.76599 9.16671 2.91659 9.16671H7.08325C8.23385 9.16671 9.16658 8.23397 9.16658 7.08337V2.91671C9.16658 1.76611 8.23385 0.833374 7.08325 0.833374Z" stroke="black" stroke-width="0.8" stroke-linecap="round" stroke-linejoin="round"/>
<path id="Vector_2" d="M6.66663 4.7375C6.71805 5.08427 6.65882 5.43843 6.49736 5.74959C6.3359 6.06076 6.08044 6.31309 5.7673 6.4707C5.45417 6.62831 5.09931 6.68317 4.7532 6.62748C4.40709 6.57178 4.08736 6.40837 3.83948 6.16049C3.59159 5.9126 3.42818 5.59287 3.37249 5.24676C3.31679 4.90065 3.37165 4.54579 3.52926 4.23266C3.68687 3.91953 3.9392 3.66406 4.25037 3.5026C4.56154 3.34115 4.91569 3.28192 5.26246 3.33334C5.61618 3.38579 5.94365 3.55061 6.1965 3.80346C6.44935 4.05632 6.61417 4.38379 6.66663 4.7375Z" stroke="black" stroke-width="0.8" stroke-linecap="round" stroke-linejoin="round"/>
<path id="Vector_3" d="M7.29175 2.70837H7.29591" stroke="black" stroke-width="0.8" stroke-linecap="round" stroke-linejoin="round"/>
</g>
<defs>
<clipPath id="clip0_1326_35">
<rect width="10" height="10" fill="white"/>
</clipPath>
</defs>
</svg>
