<svg width="20" height="21" viewBox="0 0 20 21" fill="none" xmlns="http://www.w3.org/2000/svg">
    <path
        d="M18.3334 14.5944V17.0766C18.3344 17.307 18.2868 17.5351 18.1939 17.7463C18.1009 17.9574 17.9645 18.1469 17.7935 18.3027C17.6225 18.4585 17.4206 18.5771 17.2007 18.6509C16.9809 18.7247 16.7479 18.7521 16.5168 18.7314C13.9525 18.4548 11.4893 17.5847 9.32511 16.1913C7.31163 14.9209 5.60455 13.226 4.32511 11.2268C2.91676 9.06829 2.04031 6.61072 1.76677 4.05322C1.74595 3.82441 1.77334 3.59381 1.84719 3.37609C1.92105 3.15837 2.03975 2.9583 2.19575 2.78863C2.35174 2.61895 2.54161 2.48339 2.75327 2.39056C2.96492 2.29774 3.19372 2.24969 3.42511 2.24947H5.92511C6.32953 2.24552 6.7216 2.38771 7.02824 2.64955C7.33488 2.91138 7.53517 3.275 7.59177 3.67261C7.69729 4.46697 7.89298 5.24694 8.17511 5.99762C8.28723 6.29377 8.31149 6.61562 8.24503 6.92504C8.17857 7.23447 8.02416 7.51849 7.80011 7.74345L6.74177 8.79425C7.92807 10.8657 9.65549 12.5808 11.7418 13.7587L12.8001 12.7079C13.0267 12.4854 13.3127 12.3321 13.6244 12.2661C13.936 12.2001 14.2602 12.2242 14.5584 12.3356C15.3145 12.6157 16.1001 12.81 16.9001 12.9147C17.3049 12.9714 17.6746 13.1739 17.9389 13.4836C18.2032 13.7933 18.3436 14.1886 18.3334 14.5944Z"
        stroke="white" stroke-width="2" stroke-linecap="round" stroke-linejoin="round" />
</svg>
    