<svg width="30" height="30" viewBox="0 0 30 30" fill="none" xmlns="http://www.w3.org/2000/svg">
<g id="triangle">
<path id="Vector" d="M25.175 12.8625L7.49999 2.275C7.12196 2.05671 6.69336 1.9412 6.25684 1.93998C5.82031 1.93876 5.39108 2.05186 5.01183 2.26803C4.63259 2.4842 4.31655 2.7959 4.09517 3.17213C3.87379 3.54836 3.75478 3.97599 3.74999 4.4125L3.74999 25.5875C3.75478 26.024 3.87379 26.4516 4.09517 26.8279C4.31655 27.2041 4.63259 27.5158 5.01183 27.732C5.39108 27.9481 5.82031 28.0612 6.25684 28.06C6.69336 28.0588 7.12196 27.9433 7.49999 27.725L25.175 17.1375C25.5424 16.9147 25.8461 16.6009 26.0569 16.2265C26.2677 15.8521 26.3784 15.4297 26.3784 15C26.3784 14.5703 26.2677 14.1479 26.0569 13.7735C25.8461 13.3991 25.5424 13.0853 25.175 12.8625Z" stroke="white" stroke-width="3" stroke-linecap="round" stroke-linejoin="round"/>
</g>
</svg>
