<svg width="15" height="16" viewBox="0 0 15 16" fill="none" xmlns="http://www.w3.org/2000/svg">
    <path
        d="M14.375 2.64259C13.7765 3.06176 13.1138 3.38236 12.4125 3.59204C12.0361 3.16231 11.5358 2.85773 10.9794 2.7195C10.423 2.58126 9.83719 2.61603 9.3013 2.81911C8.76542 3.02219 8.30528 3.38378 7.98311 3.85498C7.66095 4.32618 7.49231 4.88425 7.5 5.45371V6.07426C6.40165 6.10254 5.3133 5.86067 4.33188 5.37021C3.35046 4.87974 2.50645 4.1559 1.875 3.26315C1.875 3.26315 -0.625 8.84814 5 11.3304C3.71283 12.1979 2.17947 12.6329 0.625 12.5715C6.25 15.6742 13.125 12.5715 13.125 5.43509C13.1244 5.26224 13.1077 5.08981 13.075 4.92003C13.7129 4.29544 14.163 3.50685 14.375 2.64259Z"
        stroke="#C82424" stroke-width="0.8" stroke-linecap="round" stroke-linejoin="round" />
</svg>
    