<svg width="10" height="10" viewBox="0 0 10 10" fill="none" xmlns="http://www.w3.org/2000/svg">
<g id="twitter" clip-path="url(#clip0_1326_31)">
<path id="Vector" d="M9.58342 1.25004C9.18441 1.53149 8.74263 1.74675 8.27508 1.88754C8.02414 1.599 7.69064 1.39449 7.31968 1.30168C6.94872 1.20886 6.55821 1.2322 6.20095 1.36856C5.84369 1.50492 5.53693 1.74771 5.32216 2.06409C5.10738 2.38047 4.99496 2.75518 5.00008 3.13754V3.55421C4.26785 3.57319 3.54228 3.41079 2.888 3.08148C2.23372 2.75216 1.67105 2.26614 1.25008 1.66671C1.25008 1.66671 -0.416585 5.41671 3.33341 7.08337C2.4753 7.66586 1.45306 7.95793 0.416748 7.91671C4.16675 10 8.75008 7.91671 8.75008 3.12504C8.7497 3.00898 8.73854 2.8932 8.71675 2.77921C9.142 2.35983 9.44209 1.83034 9.58342 1.25004Z" stroke="black" stroke-width="0.8" stroke-linecap="round" stroke-linejoin="round"/>
</g>
<defs>
<clipPath id="clip0_1326_31">
<rect width="10" height="10" fill="white"/>
</clipPath>
</defs>
</svg>
